HIERARCHY
ROOT SpineBase
{
  OFFSET 0.000000 0.000000 0.000000
  CHANNELS 6 Xposition Yposition Zposition Zrotation Xrotation Yrotation
  JOINT SpineMid
  {
    OFFSET 0.000000 18.271906 0.000000
    CHANNELS 3 Zrotation Xrotation Yrotation
    JOINT SpineShoulder
    {
      OFFSET -0.024332 14.093492 -0.117925
      CHANNELS 3 Zrotation Xrotation Yrotation
      JOINT Neck
      {
        OFFSET -0.105781 4.683368 -0.445850
        CHANNELS 3 Zrotation Xrotation Yrotation
        JOINT Head
        {
          OFFSET 3.182941 2.233324 -5.757408
          CHANNELS 3 Zrotation Xrotation Yrotation
          End Site
          {
            OFFSET 0 0 0
          }
        }
      }
      JOINT ShoulderLeft
      {
        OFFSET -6.870687 -2.581182 5.217222
        CHANNELS 3 Zrotation Xrotation Yrotation
        JOINT ElbowLeft
        {
          OFFSET -9.481544 -14.361236 -3.408371
          CHANNELS 3 Zrotation Xrotation Yrotation
          JOINT WristLeft
          {
            OFFSET 10.696021 -5.005421 -11.685883
            CHANNELS 3 Zrotation Xrotation Yrotation
            JOINT HandLeft
            {
              OFFSET 12.546722 -5.910215 -11.771800
              CHANNELS 3 Zrotation Xrotation Yrotation
              JOINT HandTipLeft
              {
                OFFSET 2.035869 -1.946112 -2.316727
                CHANNELS 3 Zrotation Xrotation Yrotation
                End Site
                {
                  OFFSET 0 0 0
                }
              }
              JOINT ThumbLeft
              {
                OFFSET -1.258219 1.380628 -2.583302
                CHANNELS 3 Zrotation Xrotation Yrotation
                End Site
                {
                  OFFSET 0 0 0
                }
              }
            }
          }
        }
      }
      JOINT ShoulderRight
      {
        OFFSET 5.137349 1.122547 -2.035408
        CHANNELS 3 Zrotation Xrotation Yrotation
        JOINT ElbowRight
        {
          OFFSET -3.511140 -10.959868 -13.497511
          CHANNELS 3 Zrotation Xrotation Yrotation
          JOINT WristRight
          {
            OFFSET 4.937660 -10.851974 -8.097278
            CHANNELS 3 Zrotation Xrotation Yrotation
            JOINT HandRight
            {
              OFFSET 3.964147 -9.442859 -17.593698
              CHANNELS 3 Zrotation Xrotation Yrotation
              JOINT HandTipRight
              {
                OFFSET 0.906235 -1.518745 -1.338483
                CHANNELS 3 Zrotation Xrotation Yrotation
                End Site
                {
                  OFFSET 0 0 0
                }
              }
              JOINT ThumbRight
              {
                OFFSET -0.038450 -1.644677 -0.803692
                CHANNELS 3 Zrotation Xrotation Yrotation
                End Site
                {
                  OFFSET 0 0 0
                }
              }
            }
          }
        }
      }
    }
  }
  JOINT HipLeft
  {
    OFFSET -3.826439 -0.114742 1.543018
    CHANNELS 3 Zrotation Xrotation Yrotation
    JOINT KneeLeft
    {
      OFFSET 17.730169 -5.471901 -16.761726
      CHANNELS 3 Zrotation Xrotation Yrotation
      JOINT AnkleLeft
      {
        OFFSET -8.248382 -13.214538 12.986471
        CHANNELS 3 Zrotation Xrotation Yrotation
        JOINT FootLeft
        {
          OFFSET -7.198148 -1.236039 -5.923073
          CHANNELS 3 Zrotation Xrotation Yrotation
          End Site
          {
            OFFSET 0 0 0
          }
        }
      }
    }
  }
  JOINT HipRight
  {
    OFFSET 1.764504 0.556602 -5.468821
    CHANNELS 3 Zrotation Xrotation Yrotation
    JOINT KneeRight
    {
      OFFSET 11.769910 -4.290025 -13.294174
      CHANNELS 3 Zrotation Xrotation Yrotation
      JOINT AnkleRight
      {
        OFFSET -3.187752 -14.964307 14.445585
        CHANNELS 3 Zrotation Xrotation Yrotation
        JOINT FootRight
        {
          OFFSET -5.500482 4.262543 -0.409650
          CHANNELS 3 Zrotation Xrotation Yrotation
          End Site
          {
            OFFSET 0 0 0
          }
        }
      }
    }
  }
}
MOTION
Frames: 13
Frame Time: 0.033333
204.830942 23.370992 431.257552 -0.000000 0.000000 51.432627 0.000000 -0.000000 -51.432627 -0.000000 0.000000 0.000000 -0.000000 0.000000 0.000000 0.000000 0.000000 0.000000 -0.000000 0.000000 0.000000 -0.000000 0.000000 0.000000 -0.000000 0.000000 0.000000 -0.000000 0.000000 0.000000 0.000000 0.000000 0.000000 0.000000 0.000000 0.000000 -0.000000 0.000000 0.000000 -0.000000 0.000000 0.000000 -0.000000 0.000000 0.000000 -0.000000 0.000000 0.000000 0.000000 0.000000 0.000000 0.000000 0.000000 0.000000 0.000000 -0.000000 -51.432627 -0.000000 0.000000 0.000000 -0.000000 0.000000 0.000000 0.000000 0.000000 0.000000 0.000000 -0.000000 -51.432627 -0.000000 0.000000 0.000000 -0.000000 0.000000 0.000000 0.000000 0.000000 0.000000
204.570646 23.466919 431.518953 0.156572 -1.635615 49.470038 -0.286664 -0.300011 -49.470463 -0.222980 0.852039 -0.023298 3.320902 10.423179 -6.639196 0.000000 0.000000 0.000000 -0.911031 -5.079644 4.398768 1.977551 7.707290 -2.305077 -1.168002 -0.931044 0.380664 -1.277567 -3.066235 -3.195969 0.000000 0.000000 0.000000 0.000000 0.000000 0.000000 1.447058 1.924847 -1.987230 -7.450165 -1.083390 6.459419 6.754393 0.805386 -5.173581 -0.136573 11.773048 7.139206 0.000000 0.000000 0.000000 0.000000 0.000000 0.000000 5.363407 1.899227 -45.117751 -5.146952 -5.604886 -5.721416 2.444127 2.361332 0.908272 0.000000 0.000000 0.000000 1.243482 0.953595 -50.415041 -0.240829 0.066919 0.933705 -0.000000 0.000000 0.000000 0.000000 0.000000 0.000000
204.312458 23.536399 431.768134 0.228365 -3.199700 48.433340 -0.544858 -0.535369 -48.433684 -0.415776 1.610713 -0.046069 7.333692 19.216849 -13.273715 0.000000 0.000000 0.000000 -1.152100 -8.908576 7.870630 3.550623 13.218866 -4.339397 -1.714653 -1.307330 0.487755 -2.154818 -5.171822 -5.794479 0.000000 0.000000 0.000000 0.000000 0.000000 0.000000 3.180038 2.823919 -3.969740 -14.165568 -2.852657 11.757929 12.778160 1.740479 -9.369444 -1.364435 17.372637 11.263955 0.000000 0.000000 0.000000 0.000000 0.000000 0.000000 10.034671 4.069915 -40.356101 -11.267994 -10.216341 -12.140834 5.946919 4.593313 2.771976 0.000000 0.000000 0.000000 2.666210 1.875780 -50.189319 -0.591175 -0.057043 1.701777 -0.000000 0.000000 0.000000 0.000000 0.000000 0.000000
204.056380 23.579431 432.005094 0.208914 -4.661251 48.271476 -0.775396 -0.673240 -48.273294 -0.571122 2.246749 -0.069347 11.515958 25.981274 -19.410788 0.000000 0.000000 0.000000 -0.949710 -11.063365 10.161331 4.152935 16.317709 -5.493007 -1.675783 -1.123459 0.570601 -2.220760 -6.268735 -7.929296 0.000000 0.000000 0.000000 0.000000 0.000000 0.000000 5.132885 2.518097 -5.839966 -20.083188 -4.922623 16.055684 18.162999 3.124675 -12.802616 -2.676637 19.578491 13.697834 0.000000 0.000000 0.000000 0.000000 0.000000 0.000000 13.861806 6.048235 -37.231892 -18.155421 -13.507191 -19.018998 11.040266 6.550702 5.331022 0.000000 0.000000 0.000000 4.285755 2.684356 -50.704296 -1.080435 0.748157 2.057990 0.001075 -1.114471 0.236246 0.000000 0.000000 0.000000
203.802411 23.596016 432.229834 0.094226 -5.991369 48.985205 -0.972195 -0.687486 -48.991502 -0.683428 2.735662 -0.094945 15.364984 30.828116 -24.628837 0.000000 0.000000 0.000000 -0.511696 -11.274900 11.051819 3.335021 16.840065 -5.325088 -1.069637 -0.372849 0.753649 -1.221405 -6.336805 -9.640817 0.000000 0.000000 0.000000 0.000000 0.000000 0.000000 7.218032 0.874826 -7.459247 -25.200846 -7.081661 19.526795 23.056049 5.209652 -15.706855 -3.870744 19.675210 15.032253 0.000000 0.000000 0.000000 0.000000 0.000000 0.000000 16.776595 7.465666 -35.770530 -25.500077 -15.303020 -26.011598 18.121012 8.243023 8.683404 0.000000 0.000000 0.000000 6.105204 3.283093 -51.957707 -1.789809 0.597750 2.246928 0.160303 -1.450787 0.460353 0.000000 0.000000 0.000000
203.550551 23.586152 432.442354 -0.116814 -7.164877 50.626913 -1.120695 -0.560625 -50.641376 -0.749149 3.059669 -0.125247 18.491889 34.066565 -28.622774 0.000000 0.000000 0.000000 0.066792 -9.289271 10.323345 0.920792 14.456192 -3.676686 0.093941 0.963475 1.091385 0.918905 -5.408434 -10.960484 0.000000 0.000000 0.000000 0.000000 0.000000 0.000000 9.342035 -2.153076 -8.673135 -29.485085 -9.308181 22.239369 27.599373 8.218118 -18.320503 -4.960801 18.138174 15.543012 0.000000 0.000000 0.000000 0.000000 0.000000 0.000000 18.743323 8.081565 -35.995088 -32.913971 -15.599929 -32.690586 28.238303 9.379962 12.965510 0.000000 0.000000 0.000000 8.108861 3.558649 -53.991379 -2.644120 0.272527 2.181602 0.398388 -1.767808 0.756622 0.000000 0.000000 0.000000
203.266198 23.543948 432.666245 -0.216379 -8.694078 53.832813 -1.194295 0.202717 -53.808300 -0.843494 3.237054 -0.174573 22.749443 37.495876 -33.061929 0.000000 0.000000 0.000000 1.228277 -3.356969 6.900481 -4.302101 6.427579 0.563982 2.521567 3.696238 1.713520 4.220775 -4.088749 -12.978332 0.000000 0.000000 0.000000 0.000000 0.000000 0.000000 11.885914 -8.640140 -8.804889 -33.599764 -11.348203 24.445977 33.769922 15.370783 -21.179333 -4.255370 18.191235 15.185157 0.000000 0.000000 0.000000 0.000000 0.000000 0.000000 22.096052 8.281439 -37.885804 -43.344349 -14.531131 -41.518886 49.424713 8.442642 21.833642 0.000000 0.000000 0.000000 11.802125 3.288889 -58.633748 -5.227126 -0.342062 2.197872 1.289281 -2.785517 1.830748 0.000000 0.000000 0.000000
202.952297 23.379646 432.832992 -0.436061 -9.846840 58.384578 -1.252117 0.812540 -58.332632 -0.821952 3.193992 -0.230457 25.198792 39.406663 -36.261246 0.000000 0.000000 0.000000 2.409011 2.906119 3.233051 -7.799407 -1.755696 3.413429 4.464849 5.949527 2.334392 8.510211 0.409794 -11.807868 0.000000 0.000000 0.000000 0.000000 0.000000 0.000000 14.036911 -14.474308 -8.598751 -33.027285 -12.542386 21.919936 33.482334 21.065141 -22.556535 -6.685210 14.322454 16.153510 0.000000 0.000000 0.000000 0.000000 0.000000 0.000000 21.738549 7.240774 -42.024930 -50.750572 -11.811253 -47.177938 82.622355 6.498083 32.276856 0.000000 0.000000 0.000000 14.053249 2.684328 -62.797259 -5.977294 -1.552392 1.459957 1.571919 -2.328084 2.011683 0.000000 0.000000 0.000000
202.604608 23.189247 432.892047 -0.990594 -10.719131 63.672489 -0.867731 1.159061 -63.664574 -0.696737 2.861019 -0.293802 26.299520 40.373346 -38.426626 0.000000 0.000000 0.000000 4.752326 10.498958 -1.976101 -11.645914 -12.467980 5.345314 6.741511 8.949526 3.594749 12.600479 3.583541 -12.119850 0.000000 0.000000 0.000000 0.000000 0.000000 0.000000 15.203148 -19.795989 -7.023856 -33.491833 -14.672625 19.114166 34.832080 22.036008 -29.654074 -11.750437 6.217247 20.025148 0.000000 0.000000 0.000000 0.000000 0.000000 0.000000 22.556575 4.874029 -48.189402 -55.913233 -9.675134 -50.203986 113.439683 5.514440 41.259952 0.000000 0.000000 0.000000 17.010016 0.659346 -68.193106 -7.636813 -1.580891 0.770469 1.166368 -5.000259 0.928101 0.000000 0.000000 0.000000
202.437395 23.099439 433.098935 -1.717558 -10.422155 69.168261 -0.277615 1.196850 -69.250761 -0.455767 3.027208 -0.310935 20.473760 35.647986 -31.568943 0.000000 0.000000 0.000000 7.664057 16.133316 -7.527550 -14.798983 -23.371174 5.816080 8.826514 11.636100 3.998380 17.691219 5.206104 -14.774539 0.000000 0.000000 0.000000 0.000000 0.000000 0.000000 17.157620 -25.124701 -7.148575 -38.257001 -25.081229 21.544004 19.258713 -6.115492 -62.920112 -33.226409 20.516373 65.379526 0.000000 0.000000 0.000000 0.000000 0.000000 0.000000 18.505498 2.772135 -55.107242 -56.440347 -8.025109 -49.391153 131.983530 4.796367 43.906575 0.000000 0.000000 0.000000 17.611788 -1.458974 -71.773030 -7.423021 -2.590727 -0.550730 1.110561 -4.036597 1.202704 0.000000 0.000000 0.000000
202.172632 23.105105 433.427639 -3.082670 -9.465801 72.449947 0.058422 0.405119 -72.714916 -0.306536 2.445729 -0.358980 12.844203 27.577320 -21.683411 0.000000 0.000000 0.000000 12.534834 23.232760 -15.115306 -18.379262 -36.779874 5.849672 10.117945 13.357453 3.478996 20.249548 7.578646 -14.711042 0.000000 0.000000 0.000000 0.000000 0.000000 0.000000 19.620823 -28.192936 -9.248657 -42.945055 -40.092579 27.039989 -34.024187 -27.161205 -85.755478 -43.145448 47.824188 90.111602 0.000000 0.000000 0.000000 0.000000 0.000000 0.000000 14.592022 0.552912 -61.676403 -53.937035 -8.046934 -45.565828 139.885304 3.525262 44.712514 0.000000 0.000000 0.000000 17.103688 -3.723942 -73.691395 -7.979989 -4.176594 -2.028101 6.890048 1.076287 6.241104 0.000000 0.000000 0.000000
201.554295 23.240324 433.726019 -4.387371 -9.726708 74.335918 -0.844822 -0.607202 -74.833838 -0.284042 1.499862 -0.477062 13.856581 30.838963 -25.564048 0.000000 0.000000 0.000000 15.557586 29.243967 -19.694519 -19.818036 -44.039092 4.071541 10.657402 13.823602 1.640938 20.630939 11.364748 -11.466680 0.000000 0.000000 0.000000 0.000000 0.000000 0.000000 19.644541 -26.909268 -9.036230 -48.368213 -54.784237 24.697585 -31.737673 -38.052024 -60.564346 -17.648049 42.106875 48.504699 0.000000 0.000000 0.000000 0.000000 0.000000 0.000000 12.537023 -0.405040 -65.693945 -53.972701 -7.158774 -44.305067 143.644023 3.079379 42.759493 0.000000 0.000000 0.000000 16.553940 -5.048308 -75.744469 -7.532650 -4.738116 -1.586927 10.472383 4.918285 8.708238 0.000000 0.000000 0.000000
201.010802 23.466947 434.062153 -5.436072 -10.118342 73.502606 -1.290623 -1.333327 -74.214891 -0.195034 1.663507 -0.521388 14.807856 32.479354 -27.915454 0.000000 0.000000 0.000000 15.715569 30.222641 -19.780865 -19.643804 -44.487279 1.973105 11.498490 14.702641 0.526959 20.044241 11.946667 -10.217811 0.000000 0.000000 0.000000 0.000000 0.000000 0.000000 19.122986 -22.400235 -9.937045 -58.885210 -66.898696 10.207961 8.092835 -35.528760 -11.220177 -22.860885 28.571215 12.572925 0.000000 0.000000 0.000000 0.000000 0.000000 0.000000 12.004971 -0.833475 -66.094542 -53.846590 -6.928957 -43.477492 139.651002 4.042071 40.371348 0.000000 0.000000 0.000000 15.449107 -4.948641 -75.432595 -6.113606 -4.475104 -0.587512 12.182761 7.398177 9.383088 0.000000 0.000000 0.000000
